<svg width="31" height="31" viewBox="0 0 31 31" fill="none" xmlns="http://www.w3.org/2000/svg">
<g clip-path="url(#clip0_34_71)">
<path d="M26.7351 22.7734C26.3538 22.5524 25.9082 22.4725 25.4749 22.5476C25.0416 22.6228 24.6479 22.8481 24.3614 23.185C24.1676 23.4154 23.9619 23.6398 23.7443 23.8582C18.277 29.3658 8.76846 28.285 4.89148 20.6219C4.09178 19.0353 3.67491 17.2802 3.67491 15.4999C3.67491 13.7196 4.09178 11.9644 4.89148 10.3778C8.76846 2.71474 18.2769 1.63799 23.7364 7.14959C23.95 7.36534 24.1531 7.58641 24.3456 7.81282C24.6351 8.15463 25.0339 8.38332 25.4729 8.45922C25.9119 8.53511 26.3633 8.45343 26.7489 8.22834C26.9718 8.09898 27.1641 7.92211 27.3123 7.71004C27.4606 7.49797 27.5613 7.25581 27.6075 7.00042C27.6536 6.74503 27.644 6.48255 27.5795 6.23127C27.5149 5.97999 27.3968 5.74595 27.2336 5.54545C26.9467 5.19985 26.6401 4.86424 26.3217 4.54661C19.2007 -2.64504 6.84778 -1.2966 1.69496 8.57393C0.583107 10.712 0.00219727 13.0909 0.00219727 15.5059C0.00219727 17.9209 0.583107 20.2998 1.69496 22.4378C6.84778 32.3064 19.2086 33.6488 26.3217 26.4652C26.6395 26.1442 26.9408 25.8113 27.2256 25.4663C27.3893 25.2645 27.5075 25.0291 27.572 24.7766C27.6366 24.524 27.6459 24.2603 27.5994 24.0037C27.553 23.7471 27.4517 23.5038 27.3028 23.2907C27.1539 23.0775 26.9609 22.8997 26.7371 22.7695L26.7351 22.7734Z" fill="white"/>
<path d="M21.1432 9.76876C20.0209 8.63546 18.591 7.86372 17.0343 7.55113C15.4777 7.23853 13.8642 7.39912 12.3979 8.01258C10.9316 8.62604 9.67841 9.66483 8.79668 10.9976C7.91495 12.3303 7.44434 13.8972 7.44434 15.5001C7.44434 17.103 7.91495 18.6699 8.79668 20.0026C9.67841 21.3354 10.9316 22.3742 12.3979 22.9876C13.8642 23.6011 15.4777 23.7617 17.0343 23.4491C18.591 23.1365 20.0209 22.3647 21.1432 21.2314C22.6481 19.7112 23.4934 17.6497 23.4934 15.5001C23.4934 13.3505 22.6481 11.289 21.1432 9.76876ZM18.4966 18.5585C17.8974 19.1637 17.134 19.5759 16.3029 19.7429C15.4718 19.9099 14.6103 19.8242 13.8274 19.4968C13.0445 19.1693 12.3753 18.6147 11.9045 17.9031C11.4337 17.1915 11.1824 16.3549 11.1824 15.4991C11.1824 14.6433 11.4337 13.8067 11.9045 13.0951C12.3753 12.3835 13.0445 11.8289 13.8274 11.5014C14.6103 11.174 15.4718 11.0883 16.3029 11.2553C17.134 11.4223 17.8974 11.8345 18.4966 12.4397C19.3 13.2511 19.7513 14.3516 19.7513 15.4991C19.7513 16.6466 19.3 17.7471 18.4966 18.5585Z" fill="white"/>
</g>
<defs>
<clipPath id="clip0_34_71">
<rect width="31" height="31" fill="white"/>
</clipPath>
</defs>
</svg>
