<svg width="120" height="45" viewBox="0 0 120 45" fill="none" xmlns="http://www.w3.org/2000/svg">
<path d="M48.0286 42.196C47.9511 42.196 47.8992 42.1595 47.8992 42.078V36.7165C47.8992 36.6349 47.9419 36.5984 48.0286 36.5984H48.6316C48.7091 36.5984 48.76 36.6349 48.76 36.7165V42.0683C48.76 42.1595 48.7172 42.196 48.6316 42.196H48.0286Z" fill="#4B4B4B"/>
<path d="M51.8336 36.5986C51.8854 36.5931 51.9375 36.6051 51.9824 36.6329C52.0272 36.6607 52.0625 36.7028 52.0832 36.7531L53.977 40.3543C53.9804 40.3579 53.9846 40.3607 53.9892 40.3624C53.9937 40.3641 53.9986 40.3646 54.0035 40.364C54.0116 40.364 54.0116 40.364 54.0116 40.3543V36.7263C54.009 36.7089 54.0103 36.6911 54.0154 36.6743C54.0206 36.6575 54.0295 36.6423 54.0413 36.6298C54.0531 36.6174 54.0676 36.608 54.0835 36.6026C54.0994 36.5972 54.1163 36.5958 54.1329 36.5986H54.684C54.7696 36.5986 54.8123 36.6351 54.8123 36.7166V42.0148C54.8154 42.0394 54.8131 42.0644 54.8055 42.0879C54.7979 42.1114 54.7853 42.1327 54.7687 42.1502C54.7521 42.1678 54.7318 42.181 54.7095 42.189C54.6872 42.197 54.6635 42.1994 54.6402 42.1962H54.2612C54.1237 42.1962 54.0636 42.1694 54.0116 42.0599L52.1097 38.477C52.1094 38.4722 52.1074 38.4678 52.1043 38.4644C52.1011 38.4611 52.0968 38.459 52.0923 38.4587C52.0873 38.4634 52.084 38.4699 52.0832 38.477V42.0781C52.0832 42.1597 52.0485 42.1962 51.9538 42.1962H51.4027C51.3171 42.1962 51.2651 42.1597 51.2651 42.0781V36.8165C51.2651 36.6716 51.2998 36.5986 51.4546 36.5986L51.8336 36.5986Z" fill="#4B4B4B"/>
<path d="M57.2317 40.6717V38.0957C57.2317 37.1339 57.9122 36.5167 58.8504 36.5167C59.144 36.4983 59.4372 36.5575 59.7034 36.6892C59.9697 36.8208 60.2003 37.0205 60.3745 37.2702C60.4264 37.3421 60.4346 37.4055 60.3398 37.487L59.9445 37.8144C59.9277 37.8258 59.9089 37.8334 59.8892 37.8368C59.8694 37.8402 59.8493 37.8393 59.8299 37.8342C59.8105 37.8291 59.7923 37.8198 59.7765 37.807C59.7606 37.7942 59.7475 37.7781 59.7377 37.7597C59.6358 37.6185 59.5042 37.5042 59.3532 37.4256C59.2023 37.347 59.0361 37.3063 58.8677 37.3067C58.7638 37.2979 58.6593 37.3125 58.5611 37.3495C58.4629 37.3866 58.3733 37.4452 58.2983 37.5216C58.2234 37.598 58.1647 37.6903 58.1262 37.7924C58.0877 37.8946 58.0703 38.0041 58.0752 38.1139V40.6718C58.0738 40.7821 58.0946 40.8915 58.1362 40.9928C58.1778 41.0942 58.2392 41.1851 58.3164 41.2596C58.3936 41.3342 58.4849 41.3908 58.5843 41.4256C58.6837 41.4604 58.789 41.4728 58.8932 41.4618C59.0545 41.4522 59.2123 41.4087 59.3573 41.3339C59.5024 41.259 59.6317 41.1543 59.7377 41.026C59.7978 40.9627 59.8488 40.8811 59.9445 40.953L60.3744 41.2707C60.3886 41.2796 60.4009 41.2914 60.4107 41.3054C60.4205 41.3194 60.4276 41.3352 60.4315 41.3521C60.4355 41.3689 60.4363 41.3864 60.4338 41.4036C60.4314 41.4208 60.4257 41.4372 60.4172 41.4521C60.2445 41.7084 60.0141 41.9155 59.7467 42.0549C59.4793 42.1943 59.1832 42.2616 58.8851 42.2507C57.9203 42.2507 57.2317 41.6614 57.2317 40.6718" fill="#4B4B4B"/>
<path d="M65.1526 38.132C65.154 38.0178 65.1327 37.9044 65.09 37.7994C65.0473 37.6943 64.9842 37.5999 64.9047 37.5221C64.8252 37.4443 64.7312 37.385 64.6286 37.3478C64.526 37.3107 64.4172 37.2967 64.3091 37.3066C64.2 37.2957 64.09 37.309 63.986 37.3455C63.8821 37.382 63.7865 37.441 63.7055 37.5187C63.6244 37.5964 63.5597 37.6912 63.5154 37.7968C63.4711 37.9024 63.4482 38.0166 63.4483 38.132V40.6351C63.466 40.8604 63.5635 41.0704 63.7213 41.2235C63.8792 41.3766 64.0859 41.4616 64.3004 41.4616C64.515 41.4616 64.7217 41.3766 64.8795 41.2235C65.0374 41.0704 65.1349 40.8604 65.1526 40.6351V38.132ZM64.3091 42.2506C63.3444 42.2506 62.6038 41.6795 62.6038 40.6448V38.1224C62.6038 37.1241 63.3444 36.5166 64.2999 36.5166C65.2392 36.5166 66.0053 37.0973 66.0053 38.1224V40.6448C66.0053 41.6516 65.282 42.2506 64.3091 42.2506Z" fill="#4B4B4B"/>
<path d="M70.3083 39.1929C70.3636 39.1902 70.4171 39.1716 70.4631 39.1393C70.5933 39.0364 70.7013 38.9057 70.78 38.7556C70.8586 38.6055 70.9062 38.4396 70.9195 38.2687C70.9324 38.1487 70.9194 38.0271 70.8816 37.9131C70.8438 37.799 70.7821 37.6954 70.7011 37.6099C70.62 37.5244 70.5217 37.4593 70.4135 37.4193C70.3053 37.3793 70.19 37.3655 70.076 37.3789H69.3782C69.3008 37.3789 69.2753 37.4058 69.2753 37.4787V39.0845C69.2753 39.1564 69.2926 39.1929 69.369 39.1929H70.3083ZM70.1616 36.5986C71.221 36.5986 71.7803 37.2061 71.7803 38.1957C71.7608 38.4995 71.6819 38.7957 71.5485 39.0658C71.4151 39.3359 71.23 39.5739 71.0051 39.765C70.991 39.7765 70.9814 39.793 70.9782 39.8114C70.975 39.8299 70.9784 39.8489 70.9877 39.8648C70.9969 39.8917 71.2292 40.4273 71.9352 41.9966C71.9953 42.1329 71.9179 42.1962 71.8231 42.1962H71.272C71.0662 42.1962 71.0224 42.1232 70.9715 42.0062L70.1361 40.0462C70.1284 40.0199 70.1122 39.9972 70.0902 39.9823C70.0682 39.9673 70.0419 39.9611 70.0159 39.9647H69.3527C69.3008 39.9647 69.2834 39.9915 69.2834 40.0548V42.0695C69.2834 42.1597 69.2315 42.1962 69.1459 42.1962H68.5601C68.4827 42.1962 68.4308 42.1597 68.4308 42.0781V36.7263C68.4281 36.7089 68.4294 36.6911 68.4346 36.6743C68.4397 36.6575 68.4486 36.6423 68.4604 36.6298C68.4723 36.6174 68.4867 36.608 68.5026 36.6026C68.5186 36.5972 68.5355 36.5958 68.552 36.5986L70.1616 36.5986Z" fill="#4B4B4B"/>
<path d="M75.8744 37.3785H75.1501C75.0737 37.3785 75.0472 37.415 75.0472 37.4783V39.0207C75.0472 39.0937 75.0737 39.1302 75.142 39.1302H75.8744C75.9824 39.1339 76.0898 39.1135 76.1898 39.0705C76.2898 39.0275 76.3801 38.9627 76.4548 38.8805C76.5294 38.7983 76.5868 38.7004 76.6232 38.5933C76.6596 38.4861 76.6742 38.3721 76.666 38.2586C76.6725 38.1452 76.6569 38.0315 76.62 37.9246C76.5831 37.8178 76.5258 37.72 76.4515 37.6375C76.3773 37.555 76.2878 37.4894 76.1885 37.4448C76.0892 37.4003 75.9823 37.3777 75.8744 37.3785M75.8826 39.9009H75.142C75.0737 39.9009 75.0564 39.9374 75.0564 40.0007V42.0691C75.0564 42.1507 75.0126 42.1958 74.927 42.1958H74.3413C74.2557 42.1958 74.2037 42.1507 74.2037 42.0691V36.7162C74.2037 36.6346 74.2557 36.5981 74.3413 36.5981H75.8744C76.8901 36.5981 77.5095 37.3066 77.5095 38.2683C77.5087 38.4894 77.4655 38.7081 77.3825 38.9111C77.2994 39.1142 77.1783 39.2975 77.0263 39.45C76.8744 39.6025 76.6947 39.721 76.4982 39.7985C76.3016 39.876 76.0923 39.9108 75.8826 39.9009" fill="#4B4B4B"/>
<path d="M82.292 38.132C82.2933 38.0178 82.2719 37.9045 82.2292 37.7995C82.1865 37.6945 82.1234 37.6001 82.0439 37.5223C81.9645 37.4446 81.8704 37.3852 81.7679 37.348C81.6653 37.3109 81.5566 37.2968 81.4485 37.3066C81.3394 37.2957 81.2294 37.309 81.1254 37.3455C81.0215 37.382 80.9259 37.441 80.8449 37.5187C80.7638 37.5964 80.6991 37.6912 80.6548 37.7968C80.6105 37.9024 80.5877 38.0166 80.5877 38.132V40.6351C80.6054 40.8604 80.7029 41.0704 80.8607 41.2235C81.0186 41.3766 81.2253 41.4616 81.4398 41.4616C81.6544 41.4616 81.8611 41.3766 82.0189 41.2235C82.1768 41.0704 82.2743 40.8604 82.292 40.6351V38.132ZM81.4485 42.2506C80.4838 42.2506 79.7432 41.6795 79.7432 40.6448V38.1224C79.7432 37.1241 80.4838 36.5166 81.4403 36.5166C82.3786 36.5166 83.1447 37.0973 83.1447 38.1224V40.6448C83.1447 41.6516 82.4214 42.2506 81.4485 42.2506Z" fill="#4B4B4B"/>
<path d="M87.4478 39.1929C87.5031 39.1902 87.5566 39.1716 87.6026 39.1393C87.7328 39.0364 87.8408 38.9057 87.9195 38.7556C87.9982 38.6055 88.0457 38.4396 88.059 38.2687C88.0719 38.1487 88.059 38.0271 88.0212 37.9131C87.9833 37.799 87.9216 37.6954 87.8406 37.6099C87.7595 37.5244 87.6613 37.4593 87.5531 37.4193C87.4449 37.3793 87.3295 37.3655 87.2155 37.3789H86.5177C86.4403 37.3789 86.4148 37.4058 86.4148 37.4787V39.0845C86.4148 39.1564 86.4321 39.1929 86.5085 39.1929H87.4478ZM87.3011 36.5986C88.3606 36.5986 88.9199 37.2061 88.9199 38.1957C88.9004 38.4995 88.8214 38.7957 88.688 39.0658C88.5546 39.3359 88.3696 39.5739 88.1446 39.765C88.1305 39.7765 88.1209 39.793 88.1177 39.8114C88.1146 39.8299 88.1179 39.8489 88.1273 39.8648C88.1364 39.8917 88.3687 40.4273 89.0747 41.9966C89.1348 42.1329 89.0574 42.1962 88.9626 42.1962H88.4115C88.2057 42.1962 88.1619 42.1232 88.111 42.0062L87.2756 40.0462C87.2678 40.02 87.2515 39.9974 87.2296 39.9825C87.2076 39.9676 87.1814 39.9613 87.1554 39.9647H86.4922C86.4403 39.9647 86.4229 39.9915 86.4229 40.0548V42.0695C86.4229 42.1597 86.371 42.1962 86.2854 42.1962H85.6997C85.6223 42.1962 85.5703 42.1597 85.5703 42.0781V36.7263C85.5677 36.7089 85.569 36.6911 85.5741 36.6743C85.5793 36.6575 85.5881 36.6423 85.6 36.6298C85.6118 36.6174 85.6263 36.608 85.6422 36.6026C85.6581 36.5972 85.675 36.5958 85.6915 36.5986L87.3011 36.5986Z" fill="#4B4B4B"/>
<path d="M93.2475 38.7125L93.0234 37.6241C93.0153 37.5779 92.9806 37.5779 92.9725 37.6144L92.7565 38.6846L92.4295 40.1637C92.4214 40.227 92.4214 40.2452 92.4815 40.2452H93.5236C93.5746 40.2452 93.5919 40.227 93.5746 40.1637L93.2475 38.7125ZM94.8836 42.0238C94.901 42.0872 94.9091 42.1956 94.7807 42.1956H94.1685C94.0911 42.1956 94.0401 42.1687 94.0228 42.1054L93.7814 41.0621C93.764 41.0073 93.7559 40.9805 93.7039 40.9805H92.3093C92.2401 40.9805 92.2401 41.017 92.2227 41.0524L91.9904 42.1054C91.9802 42.1343 91.9612 42.1589 91.9363 42.1752C91.9114 42.1915 91.8821 42.1987 91.8529 42.1956H91.2845C91.1551 42.1956 91.1296 42.1419 91.1551 42.0324L92.4214 36.716C92.428 36.6792 92.4477 36.6465 92.4765 36.6245C92.5053 36.6026 92.541 36.593 92.5762 36.5979H93.437C93.5144 36.5979 93.5664 36.6076 93.5837 36.7074L94.8836 42.0238Z" fill="#4B4B4B"/>
<path d="M98.6535 44.0472C98.4083 44.0503 98.1679 43.9743 97.9649 43.8293C97.9129 43.7928 97.8956 43.7574 97.9384 43.693L98.0851 43.4934C98.1625 43.3936 98.1798 43.4397 98.2919 43.4934C98.3995 43.5496 98.5164 43.5835 98.6362 43.5932C98.8776 43.5932 98.9979 43.4762 98.9979 43.3216C98.9979 43.195 98.9551 43.0404 98.6882 43.0404H98.4386C98.2399 43.0404 98.1279 42.9137 98.1798 42.7044L98.3011 42.2236C97.9317 42.1977 97.5865 42.021 97.3388 41.7312C97.0912 41.4414 96.9605 41.0612 96.9747 40.6715V38.0954C96.9747 37.1336 97.6542 36.5175 98.5934 36.5175C98.8869 36.4989 99.1801 36.558 99.4463 36.6895C99.7125 36.8209 99.9432 37.0205 100.117 37.2699C100.169 37.3429 100.178 37.4063 100.083 37.4878L99.6865 37.8141C99.6697 37.8256 99.6508 37.8333 99.6311 37.8367C99.6114 37.8401 99.5912 37.8393 99.5718 37.8341C99.5524 37.829 99.5342 37.8197 99.5184 37.8069C99.5025 37.794 99.4894 37.7779 99.4797 37.7594C99.378 37.6182 99.2466 37.5038 99.0958 37.4252C98.945 37.3466 98.779 37.3059 98.6107 37.3065C98.5068 37.2977 98.4023 37.3124 98.3041 37.3494C98.206 37.3865 98.1165 37.4452 98.0415 37.5215C97.9665 37.5979 97.9079 37.6902 97.8694 37.7922C97.8308 37.8943 97.8134 38.0039 97.8182 38.1136V40.6715C97.8167 40.7819 97.8375 40.8913 97.879 40.9927C97.9206 41.094 97.982 41.185 98.0592 41.2596C98.1364 41.3342 98.2278 41.3907 98.3272 41.4255C98.4266 41.4603 98.5319 41.4726 98.6362 41.4615C98.7973 41.452 98.955 41.4086 99.0999 41.3337C99.2448 41.2589 99.3739 41.1541 99.4797 41.0257C99.5408 40.9624 99.5918 40.8808 99.6865 40.9527L100.117 41.2704C100.146 41.2887 100.167 41.3181 100.175 41.3523C100.183 41.3865 100.177 41.4227 100.16 41.4529C99.9983 41.6949 99.7845 41.8933 99.5361 42.0318C99.2878 42.1704 99.0119 42.2453 98.7309 42.2504L98.6617 42.5595C98.6617 42.5864 98.6882 42.596 98.7228 42.596H98.8084C98.8989 42.5908 98.9895 42.6058 99.0743 42.6399C99.159 42.674 99.236 42.7266 99.3002 42.7941C99.3644 42.8616 99.4143 42.9426 99.4469 43.0319C99.4794 43.1211 99.4937 43.2165 99.4889 43.312C99.4889 43.6662 99.1955 44.0472 98.6535 44.0472" fill="#4B4B4B"/>
<path d="M104.25 38.7126L104.026 37.6242C104.018 37.5781 103.984 37.5781 103.975 37.6146L103.759 38.6847L103.432 40.1638C103.424 40.2272 103.424 40.2454 103.484 40.2454H104.527C104.578 40.2454 104.595 40.2272 104.578 40.1638L104.25 38.7126ZM104.457 36.2804C104.07 36.2804 103.769 35.9809 103.45 35.9809C103.382 35.9932 103.318 36.0217 103.263 36.0644C103.208 36.107 103.162 36.1626 103.131 36.2267C103.08 36.29 103.011 36.2718 102.951 36.2267L102.726 36.0539C102.705 36.0318 102.692 36.0026 102.689 35.9713C102.686 35.94 102.693 35.9085 102.709 35.8822C102.775 35.7328 102.877 35.6049 103.006 35.5123C103.135 35.4197 103.286 35.3657 103.442 35.3562C103.794 35.3562 104.156 35.6728 104.432 35.6728C104.499 35.6608 104.563 35.6324 104.618 35.5899C104.673 35.5475 104.718 35.4921 104.75 35.4281C104.755 35.415 104.764 35.4035 104.774 35.3943C104.785 35.3851 104.797 35.3786 104.811 35.3751C104.824 35.3716 104.838 35.3712 104.851 35.3741C104.865 35.377 104.877 35.3829 104.888 35.3916L105.154 35.5558C105.223 35.6009 105.233 35.646 105.189 35.7458C105.125 35.8973 105.024 36.0274 104.895 36.1217C104.765 36.216 104.614 36.2709 104.457 36.2804M105.887 42.024C105.904 42.0873 105.912 42.1957 105.784 42.1957H105.171C105.094 42.1957 105.043 42.1689 105.026 42.1056L104.784 41.0623C104.767 41.0075 104.759 40.9807 104.707 40.9807H103.312C103.243 40.9807 103.243 41.0172 103.226 41.0526L102.993 42.1056C102.983 42.1345 102.964 42.1591 102.939 42.1754C102.914 42.1917 102.885 42.1989 102.856 42.1957H102.287C102.158 42.1957 102.133 42.1421 102.158 42.0326L103.424 36.7162C103.431 36.6794 103.451 36.6466 103.479 36.6247C103.508 36.6027 103.544 36.5932 103.579 36.5981H104.44C104.517 36.5981 104.569 36.6078 104.587 36.7076L105.887 42.024Z" fill="#4B4B4B"/>
<path d="M110.521 38.132C110.523 38.0178 110.501 37.9044 110.459 37.7994C110.416 37.6943 110.353 37.5999 110.273 37.5221C110.194 37.4443 110.1 37.385 109.997 37.3478C109.895 37.3107 109.786 37.2967 109.678 37.3066C109.569 37.2957 109.459 37.309 109.355 37.3455C109.251 37.382 109.155 37.441 109.074 37.5187C108.993 37.5964 108.928 37.6912 108.884 37.7968C108.84 37.9024 108.817 38.0166 108.817 38.132V40.6351C108.835 40.8604 108.932 41.0704 109.09 41.2235C109.248 41.3766 109.455 41.4616 109.669 41.4616C109.884 41.4616 110.09 41.3766 110.248 41.2235C110.406 41.0704 110.504 40.8604 110.521 40.6351V38.132ZM109.678 42.2506C108.713 42.2506 107.973 41.6795 107.973 40.6448V38.1224C107.973 37.1241 108.713 36.5166 109.67 36.5166C110.608 36.5166 111.374 37.0973 111.374 38.1224V40.6448C111.374 41.6516 110.651 42.2506 109.678 42.2506Z" fill="#4B4B4B"/>
<path d="M47.0744 26.7289C47.2832 27.0316 47.7325 27.183 48.4181 27.183C49.2814 27.2091 50.1397 27.0366 50.9333 26.6773C51.7268 26.318 52.4364 25.7807 53.0125 25.1028C54.2106 23.716 54.8096 21.0529 54.8096 17.1137C54.8096 14.7716 54.487 12.7586 53.8418 11.0749C52.7966 8.36568 51.0349 7.01108 48.5566 7.01107C47.7366 7.01107 47.2038 7.19462 46.9583 7.56172C46.7942 7.80001 46.7124 8.2587 46.7128 8.93778V25.2563C46.7433 25.9368 46.8639 26.4277 47.0744 26.7289M39 27.4577C39.5844 27.4506 40.1626 27.3298 40.7053 27.1014C41.3196 26.7676 41.6269 26.1579 41.6273 25.2724V8.92168C41.6273 8.06943 41.3352 7.47586 40.7512 7.14095C40.414 6.94667 39.8302 6.81179 39 6.7363V5.89478H48.6177C52.5001 5.89478 55.4605 6.9846 57.499 9.16426C59.353 11.1511 60.2797 13.817 60.2791 17.162C60.2791 20.162 59.3469 22.7038 57.4827 24.7872C55.3831 27.1293 52.5358 28.3 48.9407 28.2993H39V27.4577Z" fill="#F18500"/>
<path d="M73.8243 12.4942C74.0909 12.2538 74.3022 11.9527 74.4423 11.6138C74.5824 11.2749 74.6476 10.9068 74.6332 10.5374C74.6079 9.58158 74.3429 8.64982 73.8651 7.83684C73.3527 6.89764 72.6406 6.42821 71.7288 6.42856C71.3912 6.42536 71.06 6.52649 70.7763 6.71946C70.3159 7.04362 70.0856 7.58853 70.0856 8.3542C70.1022 9.05673 70.2797 9.74463 70.6031 10.3593C71.1402 11.37 71.7473 12.3376 72.4195 13.2541C72.9289 13.096 73.4055 12.8382 73.8243 12.4942M72.8066 25.8223C73.2867 25.5501 73.7507 25.2476 74.1962 24.9164C73.1672 23.4287 72.4827 22.4286 72.1424 21.9163C71.8021 21.4043 71.1227 20.3449 70.1039 18.738L68.5901 16.3605C67.9808 16.7093 67.42 17.1449 66.9235 17.655C66.4707 18.2116 66.2336 18.9275 66.2593 19.6601C66.2593 21.0082 66.7819 22.4372 67.8271 23.9471C68.8713 25.4563 70.0164 26.2108 71.2622 26.2108C71.7983 26.2061 72.3263 26.0732 72.8066 25.8223M66.7687 12.7046C66.5226 12.0223 66.3969 11.2984 66.3978 10.5686C66.3829 9.85881 66.517 9.15434 66.7907 8.5056C67.0644 7.85686 67.4708 7.27991 67.9809 6.81607C69.0353 5.82427 70.5817 5.32838 72.6202 5.32837C74.3103 5.32837 75.5959 5.72731 76.4771 6.52519C77.3573 7.32378 77.7977 8.26727 77.7984 9.35566C77.7998 9.90172 77.6857 10.4413 77.4646 10.9351C77.2435 11.429 76.9207 11.8647 76.5199 12.2108C75.4954 13.1062 74.3195 13.7894 73.0542 14.2245L77.8157 21.3098C78.4311 20.5016 79.0034 19.6581 79.5302 18.7831C79.9311 18.1292 80.1589 17.3744 80.1903 16.5966C80.1903 16.0449 80.0671 15.695 79.8216 15.5426C79.575 15.3923 79.0005 15.2521 78.0979 15.1218V14.3286H84.6666V15.1218C83.7997 15.241 83.2197 15.4381 82.9266 15.7132C82.6322 15.988 82.0678 16.8868 81.2335 18.4095C81.099 18.6693 80.7537 19.2038 80.1974 20.0132C79.9194 20.4232 79.3679 21.2111 78.543 22.3767C79.1269 23.2366 79.8015 24.0238 80.554 24.7231C81.037 25.1606 81.65 25.4063 82.2868 25.4176C82.755 25.4316 83.2119 25.2647 83.5715 24.9485C83.8046 24.7112 84.0028 24.4384 84.1593 24.1392L84.7736 24.5278C84.3984 25.4348 83.8934 26.2757 83.276 27.0212C82.2563 28.1869 81.062 28.7694 79.6932 28.7687C78.6741 28.7578 77.6846 28.4064 76.8673 27.7651C76.1572 27.1959 75.5051 26.5505 74.9215 25.8394C73.9943 26.5727 73.0034 27.212 71.9621 27.749C70.6628 28.4046 69.2413 28.7475 67.8006 28.7526C66.3052 28.7589 64.8556 28.2089 63.7074 27.1994C63.1168 26.7113 62.6437 26.0835 62.3263 25.3669C62.009 24.6502 61.8564 23.8648 61.8808 23.0744C61.8808 21.079 62.6347 19.3588 64.1424 17.9137C64.9839 17.1151 66.2865 16.2685 68.0502 15.3741C67.5553 14.5222 67.1267 13.6294 66.7687 12.7046" fill="#F18500"/>
<path d="M86.8148 20.5614H87.7215C88.2216 23.0387 89.0305 24.8399 90.148 25.9648C90.65 26.4995 91.2476 26.924 91.9063 27.2136C92.5651 27.5033 93.2718 27.6523 93.9856 27.6521C95.3884 27.6521 96.385 27.266 96.9756 26.4939C97.5329 25.8155 97.8466 24.9524 97.8618 24.0552C97.8773 23.6046 97.8029 23.1555 97.6436 22.7369C97.4843 22.3184 97.2435 21.9397 96.9368 21.6251C96.5283 21.2151 95.7011 20.6806 94.4552 20.0215L92.4514 18.9524C90.4618 17.8941 89.0584 16.8465 88.241 15.8096C87.4082 14.7263 86.9729 13.3635 87.0145 11.9701C87.0145 10.3504 87.5561 8.83838 88.6393 7.43404C89.7212 6.03007 91.3804 5.32809 93.6168 5.3281C94.7382 5.32519 95.8528 5.51108 96.9185 5.87874C97.5111 6.1117 98.1202 6.29545 98.74 6.4283C98.874 6.4443 99.0096 6.42378 99.134 6.36872C99.2583 6.31365 99.3671 6.22588 99.45 6.11381C99.5985 5.85609 99.7056 5.57429 99.7668 5.27979H100.704V12.4993H99.829C99.4516 10.8935 98.7062 9.40967 97.6581 8.1779C97.1928 7.603 96.6135 7.14262 95.961 6.8292C95.3085 6.51578 94.5987 6.35694 93.8817 6.3639C92.8395 6.3639 92.0157 6.6691 91.4103 7.27949C91.1187 7.56252 90.8872 7.9072 90.7308 8.29101C90.5743 8.67481 90.4966 9.08908 90.5026 9.50673C90.5026 10.5554 90.7861 11.3386 91.3532 11.8564C91.9104 12.3855 93.1594 13.163 95.1001 14.1888L97.4228 15.4199C98.3387 15.882 99.1758 16.5003 99.9003 17.25C100.462 17.8505 100.905 18.5635 101.201 19.347C101.498 20.1305 101.642 20.9686 101.626 21.8119C101.626 23.4842 101.009 25.0617 99.775 26.5444C98.5403 28.0278 96.5626 28.7695 93.8419 28.7695C93.2056 28.7682 92.5707 28.706 91.9451 28.5838C91.2971 28.4565 90.6622 28.2639 90.0492 28.0085L89.4441 27.7659C89.3035 27.723 89.167 27.6875 89.0366 27.6596C88.9269 27.636 88.8154 27.6227 88.7035 27.6199C88.5775 27.6045 88.4498 27.624 88.3331 27.6766C88.2165 27.7291 88.1148 27.8128 88.0383 27.9194C87.8929 28.1844 87.7861 28.471 87.7215 28.7695H86.8148L86.8148 20.5614Z" fill="#F18500"/>
<path d="M104.189 20.5614H105.095C105.596 23.0387 106.405 24.8399 107.522 25.9648C108.024 26.4995 108.622 26.924 109.28 27.2136C109.939 27.5033 110.646 27.6523 111.36 27.6521C112.762 27.6521 113.759 27.266 114.35 26.4939C114.907 25.8155 115.221 24.9524 115.236 24.0552C115.251 23.6046 115.177 23.1555 115.018 22.7369C114.858 22.3184 114.618 21.9396 114.311 21.6251C113.902 21.2151 113.075 20.6805 111.829 20.0215L109.825 18.9524C107.836 17.8941 106.432 16.8465 105.615 15.8096C104.782 14.7263 104.347 13.3635 104.388 11.9701C104.388 10.3504 104.93 8.83838 106.013 7.43404C107.095 6.03007 108.755 5.32809 110.992 5.3281C112.113 5.32528 113.227 5.51117 114.293 5.87874C114.885 6.1117 115.494 6.29545 116.114 6.4283C116.248 6.4443 116.384 6.42379 116.508 6.36872C116.632 6.31365 116.741 6.22588 116.824 6.11381C116.973 5.85609 117.08 5.57429 117.141 5.27979H118.078V12.4993H117.203C116.826 10.8935 116.08 9.40967 115.032 8.1779C114.567 7.603 113.988 7.14262 113.335 6.8292C112.683 6.51578 111.973 6.35694 111.256 6.3639C110.214 6.3639 109.39 6.6691 108.784 7.27949C108.493 7.56252 108.261 7.9072 108.105 8.29101C107.948 8.67481 107.871 9.08908 107.877 9.50673C107.877 10.5554 108.16 11.3386 108.727 11.8564C109.284 12.3855 110.533 13.163 112.474 14.1888L114.797 15.4199C115.713 15.882 116.55 16.5003 117.274 17.25C117.836 17.8505 118.279 18.5635 118.575 19.347C118.872 20.1305 119.016 20.9686 119 21.8119C119 23.4842 118.383 25.0617 117.149 26.5444C115.914 28.0278 113.937 28.7695 111.216 28.7695C110.58 28.7682 109.945 28.706 109.319 28.5838C108.671 28.4565 108.036 28.2639 107.423 28.0085L106.818 27.7659C106.678 27.723 106.541 27.6875 106.411 27.6596C106.301 27.636 106.189 27.6227 106.078 27.6199C105.952 27.6044 105.824 27.6238 105.708 27.6764C105.591 27.7289 105.49 27.8127 105.413 27.9194C105.267 28.1841 105.16 28.4708 105.095 28.7695H104.189L104.189 20.5614Z" fill="#F18500"/>
<path d="M9.00343 42.0304V18.9968L0 13.5698V42.0304H9.00343Z" fill="#00933C"/>
<path d="M20.0385 42.0303V12.2132L11.0348 6.78516V42.0303H20.0385Z" fill="#00933C"/>
<path d="M31.0736 42.0305V5.42854L22.0699 0.000488281V42.0305H31.0736Z" fill="#00933C"/>
<path d="M2.03064 12.2127V12.8158L11.0341 9.3672V6.78467L2.03064 12.2127Z" fill="#00933C"/>
<path d="M13.0657 5.42805V6.03139L22.0691 2.58253V0L13.0657 5.42805Z" fill="#00933C"/>
</svg>